<?xml version="1.0" standalone="no"?>
<!DOCTYPE svg PUBLIC "-//W3C//DTD SVG 20010904//EN"
 "http://www.w3.org/TR/2001/REC-SVG-20010904/DTD/svg10.dtd">
<svg version="1.0" xmlns="http://www.w3.org/2000/svg"
 width="512.000000pt" height="512.000000pt" viewBox="0 0 512.000000 512.000000"
 preserveAspectRatio="xMidYMid meet">
<metadata>
Created by potrace 1.11, written by Peter Selinger 2001-2013
</metadata>
<g transform="translate(0.000000,512.000000) scale(0.100000,-0.100000)"
fill="#000000" stroke="none">
<path d="M2380 4933 c-648 -70 -1225 -382 -1625 -878 -170 -210 -324 -489
-405 -733 -155 -469 -165 -957 -30 -1429 233 -810 905 -1453 1725 -1648 204
-49 347 -65 560 -65 585 -1 1109 177 1510 510 150 124 342 352 445 526 171
289 281 624 315 959 3 33 8 72 11 87 7 35 6 384 -1 463 -7 87 -15 151 -27 223
l-10 62 -1121 -2 -1122 -3 0 -455 c-1 -250 0 -460 2 -465 2 -7 213 -11 649
-10 l645 0 -6 -35 c-23 -131 -103 -309 -197 -438 -187 -258 -532 -442 -898
-480 -119 -13 -350 -7 -443 12 -286 56 -525 184 -738 396 -199 198 -320 410
-389 680 -30 116 -35 175 -35 370 1 192 14 276 66 433 123 366 385 674 717
841 201 101 380 146 607 151 337 8 630 -93 886 -306 l61 -52 337 337 336 336
-40 35 c-290 252 -603 420 -951 510 -204 54 -315 67 -564 70 -129 1 -251 1
-270 -2z"/>
</g>
</svg>
